<svg xmlns="http://www.w3.org/2000/svg" viewBox="15 90 220 70.6422" role="img" aria-hidden="true">
  <path fill="#53FC18" d="M15 90H38.5714V105.698H46.4286V97.8491H54.2857V90H77.8571V113.547H70V121.397H62.1429V129.246H70V137.095H77.8571V160.642H54.2857V152.793H46.4286V144.944H38.5714V160.642H15V90ZM172.143 90H195.714V105.698H203.571V97.8491H211.429V90H235V113.547H227.143V121.397H219.286V129.246H227.143V137.095H235V160.642H211.429V152.793H203.571V144.944H195.714V160.642H172.143V90ZM85.7143 90H109.286V160.642H85.7143V90ZM125 90V97.8491H117.143V152.793H125V160.642H164.286V137.095H140.714V113.547H164.286V90H125Z"/>
</svg>
