<svg xmlns="http://www.w3.org/2000/svg" width="1200" height="1200" viewBox="0 0 1200 1200" fill="none">
  <rect width="1200" height="1200" rx="72" fill="#FFF7FB"/>
  <circle cx="220" cy="180" r="76" fill="#FFE8A6" fill-opacity=".44"/>
  <circle cx="970" cy="240" r="86" fill="#E0D3FF" fill-opacity=".46"/>
  <circle cx="980" cy="980" r="90" fill="#C7EBFF" fill-opacity=".44"/>
  <rect x="170" y="170" width="860" height="860" rx="180" fill="#FFEAF6"/>
  <path d="M306 716L500 544L456 792L306 716Z" fill="#F9D8F7"/>
  <path d="M894 716L700 544L744 792L894 716Z" fill="#F9D8F7"/>
  <ellipse cx="600" cy="472" rx="208" ry="232" fill="#FFE9D7"/>
  <path d="M442 344C486 284 546 252 602 252C660 252 720 286 762 344C716 379 660 399 602 399C544 399 486 379 442 344Z" fill="#F6C5EA"/>
  <ellipse cx="520" cy="480" rx="22" ry="28" fill="#2E3962"/>
  <ellipse cx="678" cy="480" rx="22" ry="28" fill="#2E3962"/>
  <path d="M534 580C575 607 625 607 666 580" stroke="#BA739C" stroke-width="20" stroke-linecap="round"/>
  <path d="M478 642C528 699 674 699 724 642" stroke="#FFFDFD" stroke-width="34" stroke-linecap="round"/>
  <rect x="326" y="752" width="548" height="192" rx="96" fill="#A78BFA"/>
  <circle cx="466" cy="812" r="22" fill="#FFF3A7"/>
  <circle cx="734" cy="832" r="18" fill="#FFF3A7"/>
  <circle cx="664" cy="776" r="14" fill="#FFF3A7"/>
  <text x="600" y="1090" text-anchor="middle" fill="#8F5A84" font-family="Verdana, sans-serif" font-size="70" font-weight="700">Tooth Fairy</text>
</svg>
